<?xml version="1.0" encoding="iso-8859-1"?>
<!-- Generator: Adobe Illustrator 19.0.0, SVG Export Plug-In . SVG Version: 6.00 Build 0)  -->
<svg version="1.1" id="Layer_1" xmlns="http://www.w3.org/2000/svg" xmlns:xlink="http://www.w3.org/1999/xlink" x="0px" y="0px"
	 viewBox="0 0 512 512" style="enable-background:new 0 0 512 512;" xml:space="preserve">
<path style="fill:#E8B04B;" d="M422.957,122.435v345.043c0,24.588-19.934,44.522-44.522,44.522h-244.87
	c-24.588,0-44.522-19.933-44.522-44.522V122.435c0-24.588,19.933-44.522,44.522-44.522h244.87
	C403.023,77.913,422.957,97.847,422.957,122.435z"/>
<path style="fill:#FED766;" d="M418.215,102.448L258.38,445.217H147.85L319.126,77.913h59.309
	C395.834,77.913,410.891,87.899,418.215,102.448z M239.3,77.913L89.043,400.138v45.079h15.822L276.143,77.913H239.3z"/>
<path style="fill:#AD8653;" d="M422.957,422.957v44.522c0,24.588-19.934,44.522-44.522,44.522h-244.87
	c-24.588,0-44.522-19.933-44.522-44.522v-44.522H422.957z"/>
<path style="fill:#7F5233;" d="M222.609,144.696c0,12.294-9.966,22.261-22.261,22.261c-12.295,0-22.261-9.967-22.261-22.261
	c0-12.295,9.966-22.261,22.261-22.261C212.643,122.435,222.609,132.401,222.609,144.696z M311.652,122.435
	c-12.295,0-22.261,9.966-22.261,22.261c0,12.294,9.966,22.261,22.261,22.261s22.261-9.967,22.261-22.261
	C333.913,132.401,323.947,122.435,311.652,122.435z M278.261,459.13h-44.522c-4.61,0-8.348,3.738-8.348,8.348
	s3.738,8.348,8.348,8.348h44.522c4.61,0,8.348-3.738,8.348-8.348S282.871,459.13,278.261,459.13z"/>
<path style="fill:#BFBBA3;" d="M320,64v80.696c0,4.61-3.738,8.348-8.348,8.348s-8.348-3.738-8.348-8.348V64
	c0-26.084-21.22-47.304-47.304-47.304S208.696,37.916,208.696,64v80.696c0,4.61-3.738,8.348-8.348,8.348
	c-4.61,0-8.348-3.738-8.348-8.348V64c0-35.29,28.71-64,64-64S320,28.71,320,64z"/>
<g>
</g>
<g>
</g>
<g>
</g>
<g>
</g>
<g>
</g>
<g>
</g>
<g>
</g>
<g>
</g>
<g>
</g>
<g>
</g>
<g>
</g>
<g>
</g>
<g>
</g>
<g>
</g>
<g>
</g>
</svg>
